<?xml version="1.0" standalone="no"?>
<!DOCTYPE svg PUBLIC "-//W3C//DTD SVG 1.1//EN" "http://www.w3.org/Graphics/SVG/1.1/DTD/svg11.dtd" >
<svg xmlns="http://www.w3.org/2000/svg">
<metadata></metadata>
<defs>
<font id="bmw_type_global_prolight" horiz-adv-x="1194" vert-adv-y="2048" >
<font-face units-per-em="2048" ascent="1638" descent="-410" />
<missing-glyph horiz-adv-x="518" />
<glyph horiz-adv-x="2048" vert-adv-y="0" />
<glyph horiz-adv-x="2048" vert-adv-y="0" />
<glyph unicode="&#xd;" horiz-adv-x="2048" vert-adv-y="0" />
<glyph unicode=" " horiz-adv-x="518" vert-adv-y="2457" />
<glyph unicode="!" horiz-adv-x="555" vert-adv-y="2457" d="M188 0v250h179v-250h-179zM193 1260v284h169v-284l-26 -748h-117z" />
<glyph unicode="&#x22;" horiz-adv-x="829" vert-adv-y="2457" d="M150 1380v164h169v-164l-34 -428h-99zM510 1380v164h170v-164l-35 -428h-98z" />
<glyph unicode="#" horiz-adv-x="1446" vert-adv-y="2457" d="M143 389v117h246l105 450h-218v117h244l90 387h115l-90 -387h336l90 387h115l-91 -387h215v-117h-241l-105 -450h213v-117h-239l-90 -389h-115l90 389h-336l-90 -389h-115l90 389h-219zM504 506h336l104 450h-336z" />
<glyph unicode="$" horiz-adv-x="1339" vert-adv-y="2457" d="M80 408l135 32q42 -159 110 -235q99 -109 285 -123v647l-94 19q-401 82 -401 411q0 208 161 324q124 88 334 98v121h115v-125q217 -19 333 -127q94 -88 142 -254l-127 -45q-57 163 -143 233q-76 62 -205 80v-620l121 -25q381 -79 381 -420q0 -212 -151 -325 q-127 -94 -351 -109v-155h-115v155q-239 13 -371 135q-109 102 -159 308zM254 1170q0 -233 301 -293l55 -11v602q-160 -8 -251 -76q-105 -78 -105 -222zM725 82q354 29 354 302q0 135 -80 211q-68 65 -217 99l-57 13v-625z" />
<glyph unicode="%" horiz-adv-x="1956" vert-adv-y="2457" d="M82 1035q0 228 82 344q83 118 263 118q339 0 339 -459q0 -460 -344 -460q-340 0 -340 457zM201 1038q0 -360 221 -360q225 0 225 364q0 355 -227 355q-219 0 -219 -359zM563 -37l703 1534h123l-703 -1534h-123zM1190 422q0 228 81 344q83 117 264 117q339 0 339 -459 q0 -461 -344 -461q-340 0 -340 459zM1309 424q0 -361 221 -361q225 0 225 366q0 353 -227 353q-219 0 -219 -358z" />
<glyph unicode="&#x26;" horiz-adv-x="1401" vert-adv-y="2457" d="M88 407q0 177 103 301q89 107 266 187q-73 82 -107 133q-65 98 -65 206q0 164 123 254q101 73 268 73q192 0 295 -112q76 -81 76 -203q0 -161 -151 -270q-86 -61 -237 -120l418 -489q107 139 205 325l107 -55q-100 -203 -234 -365l236 -272h-183l-147 174 q-235 -211 -482 -211q-189 0 -324 102q-167 127 -167 342zM219 411q0 -144 104 -240q103 -95 257 -95q218 0 407 186l-457 545q-155 -71 -230 -161q-81 -98 -81 -235zM418 1239q0 -65 35 -127q31 -54 98 -133l33 -39q156 58 238 120q100 78 100 186q0 104 -90 166 q-70 48 -166 48q-111 0 -181 -62q-67 -60 -67 -159z" />
<glyph unicode="'" horiz-adv-x="465" vert-adv-y="2457" d="M147 1380v164h170v-164l-34 -428h-99z" />
<glyph unicode="(" horiz-adv-x="551" vert-adv-y="2457" d="M82 579q0 552 313 963l103 -55q-267 -415 -267 -912q0 -349 138 -665q53 -123 129 -242l-103 -55q-313 411 -313 966z" />
<glyph unicode=")" horiz-adv-x="551" vert-adv-y="2457" d="M53 -332q266 422 266 918q0 481 -266 901l103 55q313 -412 313 -962q0 -555 -313 -967z" />
<glyph unicode="*" horiz-adv-x="985" vert-adv-y="2457" d="M115 991l266 152l-266 151l57 101l266 -160l-8 309h125l-8 -309l266 160l57 -101l-266 -151l266 -152l-57 -100l-266 160l8 -310h-125l8 310l-266 -160z" />
<glyph unicode="+" vert-adv-y="2457" d="M51 676v110h486v498h118v-498h486v-110h-486v-498h-118v498h-486z" />
<glyph unicode="," horiz-adv-x="465" vert-adv-y="2457" d="M88 -305q133 142 133 280v25h-78v250h179v-240q0 -207 -168 -379z" />
<glyph unicode="-" horiz-adv-x="782" vert-adv-y="2457" d="M123 469v143h536v-143h-536z" />
<glyph unicode="." horiz-adv-x="465" vert-adv-y="2457" d="M143 0v250h179v-250h-179z" />
<glyph unicode="/" horiz-adv-x="481" vert-adv-y="2457" d="M0 0l362 1544h119l-362 -1544h-119z" />
<glyph unicode="0" vert-adv-y="2457" d="M82 754q0 790 518 790q512 0 512 -790q0 -791 -517 -791q-513 0 -513 791zM227 754q0 -672 370 -672q180 0 276 163q94 159 94 518q0 662 -374 662q-366 0 -366 -671z" />
<glyph unicode="1" vert-adv-y="2457" d="M232 1214q229 140 401 293h139v-1507h-131v1354q-180 -138 -352 -238z" />
<glyph unicode="2" vert-adv-y="2457" d="M105 0v63q0 216 214 407q77 68 228 168q196 129 263 199q117 124 117 283q0 142 -87 223q-90 84 -242 84q-170 0 -264 -113q-58 -70 -96 -208l-129 29q109 409 497 409q234 0 361 -135q105 -112 105 -295q0 -205 -157 -358q-73 -71 -212 -164q-199 -133 -266 -189 q-163 -136 -180 -278h831v-125h-983z" />
<glyph unicode="3" vert-adv-y="2457" d="M91 387l135 21q36 -328 352 -328q164 0 260 69q113 81 113 240q0 205 -165 280q-93 42 -253 44v123q161 7 268 78q121 80 121 239q0 137 -85 209q-81 70 -239 70q-281 0 -343 -295l-131 20q70 387 485 387q233 0 354 -115q103 -98 103 -268q0 -180 -122 -282 q-69 -58 -181 -99q169 -23 257 -131q76 -92 76 -249q0 -190 -116 -306q-131 -131 -395 -131q-237 0 -361 116q-109 101 -133 308z" />
<glyph unicode="4" vert-adv-y="2457" d="M84 338v117l702 1052h131v-1052h172v-117h-170v-338h-135v338h-700zM225 455h557v854z" />
<glyph unicode="5" vert-adv-y="2457" d="M130 289l131 35q71 -246 327 -246q351 0 351 419q0 162 -78 270q-84 116 -261 116q-111 0 -195 -45q-58 -32 -115 -103l-121 17l123 755h744v-123h-646l-77 -487q73 53 132 74q83 30 189 30q174 0 294 -101q157 -131 157 -401q0 -248 -129 -391q-131 -145 -366 -145 q-372 0 -460 326z" />
<glyph unicode="6" vert-adv-y="2457" d="M81 700q0 417 150 637q140 207 407 207q316 0 424 -260l-120 -55q-89 201 -309 201q-227 0 -325 -234q-66 -156 -81 -455q56 108 160 169t242 61q181 0 302 -96q160 -129 160 -405q0 -212 -115 -348q-136 -159 -385 -159q-277 0 -401 202q-109 177 -109 535zM249 456 q0 -162 84 -266q93 -116 256 -116q149 0 244 89q113 107 113 309q0 181 -87 279q-89 101 -252 101q-172 0 -271 -120q-87 -107 -87 -276z" />
<glyph unicode="7" vert-adv-y="2457" d="M142 1382v125h948v-141q-240 -334 -360 -597q-144 -313 -238 -769h-152q96 448 243 770q129 284 368 612h-809z" />
<glyph unicode="8" vert-adv-y="2457" d="M57 400q0 276 275 382q-221 115 -221 355q0 202 146 313q126 94 347 94q263 0 390 -151q87 -103 87 -262q0 -235 -221 -349q275 -109 275 -387q0 -190 -132 -306q-144 -126 -405 -126q-241 0 -383 105q-158 117 -158 332zM201 399q0 -147 92 -231q103 -94 301 -94 q183 0 286 78q111 85 111 248q0 161 -115 248q-99 75 -288 75q-191 0 -294 -94q-93 -84 -93 -230zM250 1134q0 -137 80 -216q92 -89 267 -89q157 0 248 74q97 79 97 232q0 136 -81 214q-91 89 -268 89q-171 0 -262 -89q-81 -79 -81 -215z" />
<glyph unicode="9" vert-adv-y="2457" d="M106 1033q0 232 133 372q131 139 368 139q309 0 428 -259q81 -175 81 -476q0 -419 -147 -638q-139 -208 -402 -208q-318 0 -426 238l116 59q81 -178 311 -178q229 0 326 231q67 160 76 453q-54 -104 -149 -163q-109 -66 -250 -66q-243 0 -367 159q-98 126 -98 337z M251 1035q0 -179 86 -279q87 -101 245 -101q168 0 269 112q95 106 95 292q0 183 -111 289q-89 86 -236 86q-160 0 -255 -109q-93 -107 -93 -290z" />
<glyph unicode=":" horiz-adv-x="465" vert-adv-y="2457" d="M143 0v250h179v-250h-179zM143 831v250h179v-250h-179z" />
<glyph unicode=";" horiz-adv-x="465" vert-adv-y="2457" d="M88 -305q133 142 133 280v25h-78v250h179v-240q0 -207 -168 -379zM143 831v250h179v-250h-179z" />
<glyph unicode="&#x3c;" vert-adv-y="2457" d="M51 674v114l1090 496v-123l-944 -430l944 -430v-123z" />
<glyph unicode="=" vert-adv-y="2457" d="M51 434v115h1090v-115h-1090zM51 913v115h1090v-115h-1090z" />
<glyph unicode="&#x3e;" vert-adv-y="2457" d="M51 178v123l944 430l-944 430v123l1090 -496v-114z" />
<glyph unicode="?" horiz-adv-x="1049" vert-adv-y="2457" d="M61 1231q86 350 471 350q235 0 345 -140q69 -87 69 -226q0 -238 -301 -428q-65 -41 -83 -67q-27 -38 -27 -102v-112h-134v153q0 87 50 138q26 27 77 60l29 19q133 88 172 130q78 86 78 200q0 262 -296 262q-163 0 -247 -100q-46 -54 -76 -158zM379 0v250h178v-250h-178z " />
<glyph unicode="@" horiz-adv-x="1882" vert-adv-y="2457" d="M98 770q0 300 190 530q244 297 662 297q326 0 556 -183q148 -118 225 -288q53 -118 53 -265q0 -258 -148 -402q-130 -127 -324 -127q-118 0 -168 49q-34 33 -44 94q-120 -143 -317 -143q-154 0 -238 92q-80 86 -80 239q0 214 128 386q146 196 374 196q182 0 264 -149 l24 118h129l-131 -587q-20 -89 -20 -112q0 -73 102 -73q123 0 209 86q119 119 119 336q0 307 -279 497q-184 126 -445 126q-302 0 -507 -195q-213 -202 -213 -527q0 -388 284 -585q176 -123 482 -123q203 0 363 66l41 -105q-163 -71 -406 -71q-259 0 -425 73 q-217 95 -339 294q-121 197 -121 456zM606 651q0 -209 205 -209q186 0 286 173q39 68 65 168q16 61 16 110q0 244 -214 244q-171 0 -277 -182q-81 -139 -81 -304z" />
<glyph unicode="A" horiz-adv-x="1358" vert-adv-y="2457" d="M0 0l588 1544h184l586 -1544h-156l-153 412h-756l-156 -412h-137zM340 535h661l-327 878z" />
<glyph unicode="B" horiz-adv-x="1386" vert-adv-y="2457" d="M154 0v1544h591q474 0 474 -369q0 -150 -76 -240q-44 -52 -121 -95q125 -40 190 -109q93 -100 93 -284q0 -447 -562 -447h-589zM297 125h426q426 0 426 325q0 314 -391 314h-461v-639zM297 889h405q363 0 363 266q0 150 -92 210q-81 54 -250 54h-426v-530z" />
<glyph unicode="C" horiz-adv-x="1464" vert-adv-y="2457" d="M98 758q0 388 182 607q180 216 494 216q495 0 594 -453l-143 -38q-42 153 -120 238q-117 128 -329 128q-266 0 -403 -211q-119 -182 -119 -491q0 -297 126 -473q138 -191 389 -191q246 0 375 171q76 101 103 261l148 -22q-113 -537 -631 -537q-270 0 -442 162 q-224 211 -224 633z" />
<glyph unicode="D" horiz-adv-x="1462" vert-adv-y="2457" d="M154 0v1544h464q746 0 746 -761q0 -783 -746 -783h-464zM297 129h332q304 0 452 187q129 162 129 462q0 637 -581 637h-332v-1286z" />
<glyph unicode="E" horiz-adv-x="1305" vert-adv-y="2457" d="M154 0v1544h1036v-129h-893v-563h848v-129h-848v-594h926v-129h-1069z" />
<glyph unicode="F" horiz-adv-x="1247" vert-adv-y="2457" d="M154 0v1544h1040v-129h-897v-549h809v-129h-809v-737h-143z" />
<glyph unicode="G" horiz-adv-x="1481" vert-adv-y="2457" d="M98 757q0 389 182 608q180 216 495 216q478 0 587 -422l-143 -39q-53 170 -161 255q-104 81 -288 81q-260 0 -397 -211q-119 -182 -119 -491q0 -303 124 -475q135 -189 384 -189q194 0 322 94q139 103 139 273v170h-250v127h393v-754h-92l-41 164q-187 -201 -473 -201 q-270 0 -441 162q-221 210 -221 632z" />
<glyph unicode="H" horiz-adv-x="1487" vert-adv-y="2457" d="M154 0v1544h143v-659h893v659h143v-1544h-143v756h-893v-756h-143z" />
<glyph unicode="I" horiz-adv-x="451" vert-adv-y="2457" d="M154 0v1544h143v-1544h-143z" />
<glyph unicode="J" horiz-adv-x="1143" vert-adv-y="2457" d="M61 430l140 19q33 -361 323 -361q332 0 332 373v1083h143v-1073q0 -261 -134 -392q-119 -116 -330 -116q-228 0 -355 149q-98 116 -119 318z" />
<glyph unicode="K" horiz-adv-x="1360" vert-adv-y="2457" d="M154 0v1544h143v-770l795 770h174l-607 -598l701 -946h-184l-619 844l-260 -250v-594h-143z" />
<glyph unicode="L" horiz-adv-x="1190" vert-adv-y="2457" d="M154 0v1544h143v-1415h852v-129h-995z" />
<glyph unicode="M" horiz-adv-x="1817" vert-adv-y="2457" d="M154 0v1544h249l496 -1390l531 1390h233v-1544h-139v1421l-541 -1421h-182l-508 1436v-1436h-139z" />
<glyph unicode="N" horiz-adv-x="1473" vert-adv-y="2457" d="M154 0v1544h190l832 -1360v1360h143v-1544h-189l-833 1362v-1362h-143z" />
<glyph unicode="O" horiz-adv-x="1608" vert-adv-y="2457" d="M98 772q0 383 190 598q188 211 521 211q323 0 509 -211q191 -216 191 -598q0 -381 -191 -597q-187 -212 -514 -212q-294 0 -478 173q-228 216 -228 636zM254 772q0 -297 139 -483q150 -199 409 -199q236 0 383 164q169 188 169 518q0 299 -140 482q-151 200 -415 200 q-256 0 -406 -200q-139 -184 -139 -482z" />
<glyph unicode="P" horiz-adv-x="1305" vert-adv-y="2457" d="M154 0v1544h622q223 0 347 -123q120 -119 120 -333q0 -213 -134 -336q-137 -125 -374 -125h-438v-627h-143zM297 750h451q171 0 264 104q80 89 80 238q0 178 -118 265q-84 62 -220 62h-457v-669z" />
<glyph unicode="Q" horiz-adv-x="1608" vert-adv-y="2457" d="M98 772q0 382 190 598q187 211 515 211q329 0 515 -211q191 -216 191 -598q0 -466 -284 -682l159 -254l-112 -72l-162 259q-145 -60 -306 -60q-328 0 -516 212q-190 216 -190 597zM254 772q0 -297 139 -483q150 -199 407 -199q125 0 236 51l-184 295l113 72l182 -293 q207 194 207 556q0 299 -140 483q-150 200 -411 200q-260 0 -410 -200q-139 -185 -139 -482z" />
<glyph unicode="R" horiz-adv-x="1382" vert-adv-y="2457" d="M154 0v1544h626q242 0 367 -117q121 -113 121 -321q0 -159 -89 -281q-72 -100 -202 -147l336 -678h-168l-309 651q-16 -2 -27 -2h-15h-16h-481v-649h-143zM297 774h467q352 0 352 331q0 314 -352 314h-467v-645z" />
<glyph unicode="S" horiz-adv-x="1339" vert-adv-y="2457" d="M61 410l142 34q43 -153 105 -222q115 -130 352 -130q427 0 427 296q0 130 -78 203q-72 68 -223 97l-262 51q-418 82 -418 420q0 188 131 300q142 122 404 122q269 0 412 -117q112 -92 164 -272l-134 -43q-50 142 -126 209q-109 98 -316 98q-194 0 -295 -81 q-92 -73 -92 -208q0 -119 73 -188q73 -68 226 -98l299 -58q393 -76 393 -425q0 -197 -134 -308q-151 -127 -445 -127q-278 0 -428 128q-121 103 -177 319z" />
<glyph unicode="T" horiz-adv-x="1368" vert-adv-y="2457" d="M51 1415v129h1266v-129h-561v-1415h-144v1415h-561z" />
<glyph unicode="U" horiz-adv-x="1440" vert-adv-y="2457" d="M143 580v964h144v-952q0 -271 119 -393q105 -109 316 -109q209 0 314 109q117 122 117 393v952h143v-964q0 -617 -572 -617q-581 0 -581 617z" />
<glyph unicode="V" horiz-adv-x="1276" vert-adv-y="2457" d="M0 1544h152l491 -1415l490 1415h143l-553 -1544h-176z" />
<glyph unicode="W" horiz-adv-x="1907" vert-adv-y="2457" d="M0 1544h152l344 -1440l366 1440h172l359 -1429l364 1429h150l-408 -1544h-196l-355 1356l-366 -1356h-195z" />
<glyph unicode="X" horiz-adv-x="1221" vert-adv-y="2457" d="M0 0l532 797l-495 747h164l411 -631l418 631h148l-492 -735l535 -809h-162l-455 692l-457 -692h-147z" />
<glyph unicode="Y" horiz-adv-x="1223" vert-adv-y="2457" d="M0 1544h158l458 -815l455 815h152l-541 -952v-592h-143v592z" />
<glyph unicode="Z" horiz-adv-x="1253" vert-adv-y="2457" d="M76 0v131l932 1284h-902v129h1061v-131l-931 -1284h948v-129h-1108z" />
<glyph unicode="[" horiz-adv-x="604" vert-adv-y="2457" d="M154 -393v1937h383v-106h-242v-1725h242v-106h-383z" />
<glyph unicode="\" horiz-adv-x="481" vert-adv-y="2457" d="M0 1544h119l362 -1544h-119z" />
<glyph unicode="]" horiz-adv-x="604" vert-adv-y="2457" d="M68 -287h241v1725h-241v106h383v-1937h-383v106z" />
<glyph unicode="^" horiz-adv-x="1188" vert-adv-y="2457" d="M123 797l414 747h114l414 -747h-131l-340 626l-340 -626h-131z" />
<glyph unicode="_" horiz-adv-x="1024" vert-adv-y="2457" d="M0 -143h1024v-123h-1024v123z" />
<glyph unicode="`" horiz-adv-x="811" vert-adv-y="2457" d="M244 1544h153l164 -272h-123z" />
<glyph unicode="a" horiz-adv-x="1020" vert-adv-y="2457" d="M74 273q0 178 115 270q84 68 247 92l346 51v88q0 234 -262 234q-142 0 -215 -71q-50 -48 -82 -142l-117 30q89 293 422 293q203 0 301 -99q84 -85 84 -237v-598q0 -75 29 -184h-129q-1 2 -3 11q-1 3 -4 11q-15 39 -15 132q-91 -114 -184 -157q-71 -34 -205 -34 q-140 0 -229 77q-99 86 -99 233zM209 279q0 -203 215 -203q128 0 222 62q136 90 136 257v178l-350 -55q-223 -35 -223 -239z" />
<glyph unicode="b" horiz-adv-x="1159" vert-adv-y="2457" d="M133 0v1544h131v-639q130 213 377 213q211 0 327 -160q109 -150 109 -405q0 -264 -112 -418q-124 -172 -359 -172q-118 0 -203 50q-74 43 -139 139v-152h-131zM260 528q0 -192 78 -311q90 -139 258 -139q342 0 342 458q0 468 -328 468q-175 0 -270 -151 q-80 -126 -80 -325z" />
<glyph unicode="c" horiz-adv-x="1047" vert-adv-y="2457" d="M82 541q0 259 116 411q125 166 362 166q341 0 421 -325l-131 -39q-31 120 -85 176q-73 76 -210 76q-168 0 -256 -137q-78 -120 -78 -328q0 -212 75 -327q88 -136 262 -136q172 0 250 124q37 57 58 148l127 -37q-103 -350 -431 -350q-214 0 -339 136q-141 153 -141 442z " />
<glyph unicode="d" horiz-adv-x="1159" vert-adv-y="2457" d="M82 522q0 265 112 422q123 174 349 174q221 0 352 -192v618h131v-1544h-131v170q-129 -207 -375 -207q-191 0 -306 129q-132 147 -132 430zM221 538q0 -460 328 -460q160 0 253 122q97 127 97 347q0 195 -78 315q-93 142 -265 142q-156 0 -243 -114q-92 -120 -92 -352z " />
<glyph unicode="e" horiz-adv-x="1116" vert-adv-y="2457" d="M82 537q0 255 124 412q133 169 371 169q230 0 355 -149q110 -133 110 -348v-21v-22v-14v-14q0 -18 -2 -32h-819q6 -183 72 -292q89 -148 272 -148q161 0 249 100q43 49 83 156l123 -45q-37 -114 -109 -190q-127 -136 -344 -136q-211 0 -339 134q-146 154 -146 440z M223 621h682q-1 154 -63 250q-89 139 -268 139q-187 0 -283 -157q-59 -97 -68 -232z" />
<glyph unicode="f" horiz-adv-x="592" vert-adv-y="2457" d="M37 973v108h168v187q0 297 271 297q52 0 91 -6q9 -2 43 -6l6 -1l-12 -112q-66 8 -105 8q-86 0 -124 -48q-39 -48 -39 -151v-168h256v-108h-256v-973h-131v973h-168z" />
<glyph unicode="g" horiz-adv-x="1159" vert-adv-y="2457" d="M82 524q0 266 112 421q124 173 354 173q224 0 347 -190v153h131v-1034q0 -270 -129 -379q-108 -92 -336 -92q-361 0 -442 258l114 45q32 -90 94 -133q79 -55 234 -55q139 0 212 45q52 33 81 81q41 69 41 214v162q-130 -211 -380 -211q-209 0 -324 148q-109 140 -109 394z M221 540q0 -444 329 -444q159 0 252 115q97 121 97 341q0 223 -102 346q-88 106 -245 106q-153 0 -239 -112q-92 -120 -92 -352z" />
<glyph unicode="h" horiz-adv-x="1130" vert-adv-y="2457" d="M133 0v1544h131v-647q61 101 129 153q90 68 244 68q172 0 267 -101q93 -98 93 -265v-752h-131v717q0 284 -261 284q-165 0 -261 -151q-80 -128 -80 -309v-541h-131z" />
<glyph unicode="i" horiz-adv-x="418" vert-adv-y="2457" d="M143 0v1081h131v-1081h-131zM143 1335v209h131v-209h-131z" />
<glyph unicode="j" horiz-adv-x="430" vert-adv-y="2457" d="M-117 -403l17 112q59 -14 117 -14q80 0 109 36q30 38 30 117v1233h131v-1269q0 -236 -228 -236h-15q-82 0 -161 21zM156 1337v207h131v-207h-131z" />
<glyph unicode="k" horiz-adv-x="1001" vert-adv-y="2457" d="M133 0v1544h131v-932l502 469h168l-404 -379l465 -702h-161l-400 612l-170 -161v-451h-131z" />
<glyph unicode="l" horiz-adv-x="418" vert-adv-y="2457" d="M143 0v1544h131v-1544h-131z" />
<glyph unicode="m" horiz-adv-x="1751" vert-adv-y="2457" d="M133 0v1081h131v-188q61 106 118 152q91 73 232 73q230 0 308 -225q57 104 122 153q94 72 237 72t232 -80q105 -95 105 -276v-762h-131v721q0 280 -233 280q-165 0 -254 -177q-60 -118 -60 -283v-541h-131v717q0 284 -232 284q-148 0 -237 -148q-76 -126 -76 -312v-541 h-131z" />
<glyph unicode="n" horiz-adv-x="1130" vert-adv-y="2457" d="M133 0v1081h131v-188q61 105 125 153q97 72 247 72q170 0 268 -102q93 -98 93 -264v-752h-131v717q0 284 -261 284q-165 0 -261 -151q-80 -128 -80 -309v-541h-131z" />
<glyph unicode="o" horiz-adv-x="1139" vert-adv-y="2457" d="M82 541q0 261 119 413q130 164 372 164q234 0 364 -164q120 -154 120 -413q0 -260 -120 -413q-130 -165 -366 -165q-217 0 -344 135q-145 154 -145 443zM221 536q0 -203 79 -324q91 -136 268 -136q168 0 262 125q88 116 88 345q0 203 -81 323q-92 137 -271 137 q-192 0 -282 -161q-63 -113 -63 -309z" />
<glyph unicode="p" horiz-adv-x="1159" vert-adv-y="2457" d="M133 -393v1474h131v-174q129 211 376 211q211 0 328 -158q109 -147 109 -403q0 -265 -112 -420q-124 -174 -355 -174q-219 0 -346 191v-547h-131zM260 530q0 -192 77 -312q90 -140 257 -140q145 0 232 90q112 116 112 370q0 466 -332 466q-173 0 -267 -149 q-79 -127 -79 -325z" />
<glyph unicode="q" horiz-adv-x="1159" vert-adv-y="2457" d="M82 524q0 266 112 421q125 173 354 173q218 0 347 -190v153h131v-1474h-131v565q-129 -209 -378 -209q-209 0 -326 158q-109 147 -109 403zM221 540q0 -462 328 -462q160 0 253 122q97 128 97 350q0 226 -105 351q-87 103 -242 103q-153 0 -239 -112q-92 -120 -92 -352z " />
<glyph unicode="r" horiz-adv-x="651" vert-adv-y="2457" d="M133 0v1081h131v-190q55 106 126 158q61 45 155 45q57 0 106 -13l-14 -114q-35 12 -90 12q-130 0 -200 -94q-83 -111 -83 -330v-555h-131z" />
<glyph unicode="s" horiz-adv-x="989" vert-adv-y="2457" d="M47 297l121 31q34 -119 82 -171q78 -83 237 -83q132 0 208 51q75 52 75 149q0 84 -48 131q-45 44 -142 64l-191 39q-301 62 -301 303q0 142 113 228q104 79 280 79q330 0 414 -293l-117 -32q-39 119 -119 172q-68 45 -188 45q-254 0 -254 -193q0 -79 48 -124 q49 -45 163 -68l207 -41q270 -54 270 -308q0 -153 -122 -238q-107 -75 -291 -75q-208 0 -321 103q-81 73 -124 231z" />
<glyph unicode="t" horiz-adv-x="639" vert-adv-y="2457" d="M57 973v108h148v308h131v-308h235v-108h-235v-721q0 -87 33 -122q28 -30 102 -30q59 0 111 9l10 -117q-109 -12 -170 -12q-217 0 -217 237v756h-148z" />
<glyph unicode="u" horiz-adv-x="1130" vert-adv-y="2457" d="M133 330v751h131v-716q0 -129 58 -202q67 -85 200 -85q167 0 263 153q81 128 81 308v542h131v-1081h-131v190q-60 -106 -126 -154q-98 -73 -250 -73q-130 0 -220 64q-137 97 -137 303z" />
<glyph unicode="v" horiz-adv-x="954" vert-adv-y="2457" d="M0 1081h137l342 -987l346 987h129l-381 -1081h-196z" />
<glyph unicode="w" horiz-adv-x="1497" vert-adv-y="2457" d="M0 1081h139l269 -997l262 997h166l262 -997l270 997h129l-307 -1081h-193l-247 954l-248 -954h-195z" />
<glyph unicode="x" horiz-adv-x="866" vert-adv-y="2457" d="M0 0l360 557l-337 524h147l264 -415l266 415h138l-336 -516l364 -565h-147l-291 459l-295 -459h-133z" />
<glyph unicode="y" horiz-adv-x="989" vert-adv-y="2457" d="M0 1081h141l377 -901l340 901h131l-489 -1296q-79 -209 -264 -209h-12q-80 0 -161 25l25 110q68 -18 119 -18q77 0 121 43q32 32 59 100l66 170z" />
<glyph unicode="z" horiz-adv-x="922" vert-adv-y="2457" d="M61 0v106l631 867h-604v108h750v-106l-633 -866h655v-109h-799z" />
<glyph unicode="{" horiz-adv-x="895" vert-adv-y="2457" d="M147 522v107q89 15 127 37q78 45 78 157v492q0 142 80 196q51 33 156 33h160v-106h-125q-83 0 -113 -52q-21 -37 -21 -131v-462q0 -190 -165 -218q165 -25 165 -217v-462q0 -108 31 -145q31 -38 103 -38h125v-106h-160q-115 0 -170 44q-66 53 -66 185v492q0 126 -101 167 q-38 16 -104 27z" />
<glyph unicode="|" horiz-adv-x="481" vert-adv-y="2457" d="M215 0v1544h117v-1544h-117z" />
<glyph unicode="}" horiz-adv-x="895" vert-adv-y="2457" d="M150 -287h124q89 0 116 59q18 38 18 124v462q0 191 165 217q-165 27 -165 218v462q0 108 -31 145q-32 38 -103 38h-124v106h159q131 0 185 -58q51 -55 51 -171v-492q0 -116 84 -160q37 -20 121 -34v-107q-102 -18 -142 -46q-63 -44 -63 -148v-492q0 -143 -80 -195 q-51 -34 -156 -34h-159v106z" />
<glyph unicode="~" horiz-adv-x="1417" vert-adv-y="2457" d="M123 481q33 197 103 294q75 104 208 104q137 0 268 -138l95 -100q75 -79 119 -98q24 -11 75 -11q102 0 151 121q27 67 46 189l106 -25q-61 -397 -305 -397q-155 0 -301 160l-61 67q-65 71 -97 92q-43 29 -100 29q-105 0 -156 -131q-24 -63 -45 -180z" />
<glyph unicode="&#xa0;" horiz-adv-x="518" vert-adv-y="2457" />
<glyph unicode="&#xa1;" horiz-adv-x="555" vert-adv-y="2457" d="M188 898v250h179v-250h-179zM193 -111l26 747h117l26 -747v-285h-169v285z" />
<glyph unicode="&#xa2;" horiz-adv-x="1047" vert-adv-y="2457" d="M82 731q0 278 133 432q105 122 281 144v190h118v-188q300 -34 367 -324l-131 -39q-33 126 -87 179t-149 69v-924q120 20 183 103q45 59 69 166l127 -37q-55 -178 -156 -260q-89 -73 -223 -88v-191h-118v193q-187 24 -293 156q-121 152 -121 419zM221 732q0 -408 275 -460 v920q-127 -23 -197 -132q-78 -122 -78 -328z" />
<glyph unicode="&#xa3;" horiz-adv-x="1196" vert-adv-y="2457" d="M74 0v127q135 66 224 156q140 141 140 305v28h-268v107h240q-28 56 -107 148q-55 65 -90 125q-51 87 -51 197q0 175 129 286q119 102 324 102q228 0 353 -109q78 -69 132 -204l-125 -54q-49 129 -134 189q-84 59 -228 59q-163 0 -246 -84q-66 -67 -66 -184 q0 -111 124 -250q115 -130 140 -221h357v-107h-340v-4q0 -179 -120 -326q-62 -77 -167 -161h840v-125h-1061z" />
<glyph unicode="&#xa4;" horiz-adv-x="1212" vert-adv-y="2457" d="M76 336l112 113q-112 140 -112 325q0 181 112 326l-112 112l92 93l113 -113q145 113 325 113t326 -113l112 113l93 -93l-113 -112q113 -145 113 -326q0 -180 -113 -325l113 -113l-93 -92l-112 112q-141 -112 -326 -112q-180 0 -325 112l-113 -112zM203 774 q0 -168 118 -291q118 -121 284 -121q150 0 263 100q142 125 142 312q0 193 -149 319q-111 93 -262 93q-160 0 -278 -121q-118 -123 -118 -291z" />
<glyph unicode="&#xa5;" horiz-adv-x="1223" vert-adv-y="2457" d="M0 1544h158l458 -815l455 815h152l-480 -846h248v-106h-309v-186h309v-107h-309v-299h-143v299h-310v107h310v186h-310v106h250z" />
<glyph unicode="&#xa6;" horiz-adv-x="481" vert-adv-y="2457" d="M215 0v514h117v-514h-117zM215 1030v514h117v-514h-117z" />
<glyph unicode="&#xa7;" horiz-adv-x="1090" vert-adv-y="2457" d="M92 76l121 43q46 -99 105 -149q88 -74 234 -74q298 0 298 200q0 152 -223 211l-219 58q-182 48 -255 129q-59 66 -59 177q0 207 244 306q-127 41 -185 104q-61 66 -61 175q0 138 101 220q111 89 310 89q230 0 347 -115q64 -63 100 -176l-121 -39q-42 107 -98 155 q-79 66 -227 66q-133 0 -206 -47q-79 -51 -79 -150q0 -85 69 -132q44 -28 158 -58l236 -61q191 -49 259 -151q38 -56 38 -155q0 -203 -244 -301q132 -48 190 -116q60 -69 60 -188q0 -156 -133 -242q-110 -72 -300 -72q-351 0 -460 293zM223 686q0 -157 217 -207l129 -30 q104 11 188 72q93 67 93 172q0 91 -70 143q-49 36 -147 61l-121 31q-101 -10 -177 -59q-112 -72 -112 -183z" />
<glyph unicode="&#xa8;" horiz-adv-x="811" vert-adv-y="2457" d="M170 1303v209h137v-209h-137zM502 1303v209h137v-209h-137z" />
<glyph unicode="&#xa9;" horiz-adv-x="1815" vert-adv-y="2457" d="M98 772q0 335 237 572t578 237q222 0 417 -121q206 -127 306 -336q80 -169 80 -355q0 -243 -140 -451q-134 -199 -358 -295q-140 -60 -312 -60q-310 0 -541 208q-125 114 -195 267q-72 160 -72 334zM225 772q0 -286 201 -490q199 -204 480 -204q253 0 444 167 q111 97 174 232q65 139 65 295q0 286 -200 491q-200 203 -487 203q-277 0 -476 -203q-201 -205 -201 -491zM494 764q0 212 103 332q103 121 285 121q283 0 345 -267l-117 -30q-23 86 -62 130q-57 64 -164 64q-147 0 -216 -124q-47 -84 -47 -232q0 -144 65 -233 q68 -93 193 -93q202 0 241 225l121 -16q-67 -313 -367 -313q-154 0 -253 90q-127 115 -127 346z" />
<glyph unicode="&#xaa;" horiz-adv-x="862" vert-adv-y="2457" d="M102 1019q0 206 263 243l231 32v35q0 144 -177 144q-110 0 -159 -57q-20 -24 -37 -66l-96 24q63 191 303 191q275 0 275 -217v-373q0 -83 20 -137h-107q-13 32 -16 84q-45 -53 -95 -76q-66 -31 -168 -31q-105 0 -168 49q-69 54 -69 155zM213 1029q0 -122 149 -122 q98 0 162 46q72 52 72 151v98l-223 -35q-160 -25 -160 -138z" />
<glyph unicode="&#xab;" horiz-adv-x="844" vert-adv-y="2457" d="M37 535l244 360h145l-244 -360l244 -361h-145zM418 535l244 360h145l-244 -360l244 -361h-145z" />
<glyph unicode="&#xac;" vert-adv-y="2457" d="M51 913v115h1090v-594h-115v479h-975z" />
<glyph unicode="&#xad;" horiz-adv-x="782" vert-adv-y="2457" d="M123 469v143h536v-143h-536z" />
<glyph unicode="&#xae;" horiz-adv-x="1815" vert-adv-y="2457" d="M98 772q0 335 237 572t578 237q222 0 417 -121q206 -127 306 -336q80 -169 80 -355q0 -243 -140 -451q-134 -199 -358 -295q-140 -60 -312 -60q-310 0 -541 208q-125 114 -195 267q-72 160 -72 334zM225 772q0 -286 201 -490q199 -204 480 -204q253 0 444 167 q111 97 174 232q65 139 65 295q0 286 -200 491q-200 203 -487 203q-277 0 -476 -203q-201 -205 -201 -491zM588 348v848h362q143 0 215 -66q72 -65 72 -176q0 -97 -60 -167q-38 -46 -98 -72l191 -367h-133l-170 344h-19h-243v-344h-117zM705 795h231q176 0 176 154 q0 147 -176 147h-231v-301z" />
<glyph unicode="&#xaf;" horiz-adv-x="811" vert-adv-y="2457" d="M104 1352v112h603v-112h-603z" />
<glyph unicode="&#xb0;" horiz-adv-x="877" vert-adv-y="2457" d="M92 1221q0 144 101 243q102 101 248 101q164 0 267 -127q76 -93 76 -220q0 -141 -101 -242q-99 -99 -245 -99q-129 0 -226 82q-120 102 -120 262zM201 1221q0 -105 70 -177q69 -71 166 -71q93 0 167 69q72 67 72 182q0 117 -88 190q-65 54 -153 54q-95 0 -164 -71 q-70 -72 -70 -176z" />
<glyph unicode="&#xb1;" vert-adv-y="2457" d="M51 0v115h486v497h-486v111h486v498h118v-498h486v-111h-486v-497h486v-115h-1090z" />
<glyph unicode="&#xb2;" horiz-adv-x="848" vert-adv-y="2457" d="M86 598v51q0 167 241 309q173 102 210 136q69 65 69 148t-62 125q-48 32 -130 32q-164 0 -213 -170l-111 18q67 250 336 250q172 0 249 -93q52 -63 52 -166q0 -122 -103 -212q-48 -42 -139 -94q-188 -108 -235 -171q-17 -21 -29 -56h516v-107h-651z" />
<glyph unicode="&#xb3;" horiz-adv-x="848" vert-adv-y="2457" d="M80 825l117 17q16 -166 211 -166q223 0 223 161q0 109 -110 145q-48 15 -140 19v99q103 4 161 39q72 43 72 120q0 144 -197 144q-170 0 -204 -148l-109 17q53 225 322 225q151 0 232 -66q73 -60 73 -162q0 -164 -172 -220q193 -37 193 -216q0 -105 -77 -174 q-91 -81 -247 -81q-175 0 -260 63q-77 58 -88 184z" />
<glyph unicode="&#xb4;" horiz-adv-x="811" vert-adv-y="2457" d="M246 1272l164 272h153l-194 -272h-123z" />
<glyph unicode="&#xb5;" horiz-adv-x="1130" vert-adv-y="2457" d="M133 -393v1474h131v-716q0 -129 58 -202q67 -85 200 -85q167 0 263 153q81 128 81 308v542h131v-1081h-131v190q-127 -227 -343 -227q-163 0 -259 118v-474h-131z" />
<glyph unicode="&#xb6;" horiz-adv-x="1401" vert-adv-y="2457" d="M61 1055q0 226 122 357q122 132 335 132h809v-108h-129v-1829h-115v1829h-309v-1829h-115v954h-100q-222 0 -359 133q-139 135 -139 361z" />
<glyph unicode="&#xb7;" horiz-adv-x="465" vert-adv-y="2457" d="M143 606v250h179v-250h-179z" />
<glyph unicode="&#xb8;" horiz-adv-x="811" vert-adv-y="2457" d="M236 -393l194 272h123l-164 -272h-153z" />
<glyph unicode="&#xb9;" horiz-adv-x="848" vert-adv-y="2457" d="M178 1315q128 65 252 162h105v-879h-107v756q-87 -62 -207 -123z" />
<glyph unicode="&#xba;" horiz-adv-x="938" vert-adv-y="2457" d="M119 1190q0 194 109 293q90 82 248 82q164 0 258 -107q85 -97 85 -268q0 -170 -85 -268q-94 -107 -265 -107q-155 0 -247 89q-103 99 -103 286zM236 1190q0 -285 233 -285t233 290q0 278 -239 278q-116 0 -176 -83q-51 -69 -51 -200z" />
<glyph unicode="&#xbb;" horiz-adv-x="844" vert-adv-y="2457" d="M37 174l244 361l-244 360h145l244 -360l-244 -361h-145zM418 174l244 361l-244 360h145l244 -360l-244 -361h-145z" />
<glyph unicode="&#xbc;" horiz-adv-x="1956" vert-adv-y="2457" d="M172 1315q128 65 252 162h104v-879h-106v756q-99 -69 -207 -123zM563 -37l703 1534h123l-703 -1534h-123zM1167 160v98l457 604h119v-610h92v-92h-92v-176h-101v176h-475zM1276 252h364v481z" />
<glyph unicode="&#xbd;" horiz-adv-x="1956" vert-adv-y="2457" d="M172 1315q128 65 252 162h104v-879h-106v756q-99 -69 -207 -123zM553 -37l702 1534h123l-702 -1534h-123zM1210 -16v51q0 169 260 321q151 87 191 123q70 62 70 148q0 82 -62 124q-50 33 -132 33q-162 0 -212 -170l-111 19q67 250 336 250q172 0 249 -93q52 -62 52 -165 q0 -123 -100 -212q-48 -42 -141 -96q-191 -111 -236 -170q-17 -21 -28 -57h516v-106h-652z" />
<glyph unicode="&#xbe;" horiz-adv-x="1956" vert-adv-y="2457" d="M88 825l117 17q16 -166 212 -166q222 0 222 161q0 109 -110 145q-48 15 -140 19v99q103 4 161 39q73 43 73 120q0 144 -198 144q-167 0 -204 -148l-108 17q52 225 322 225q150 0 231 -66q73 -60 73 -162q0 -164 -172 -220q193 -37 193 -216q0 -105 -76 -174 q-90 -81 -248 -81q-180 0 -260 63q-77 62 -88 184zM623 -37l702 1534h123l-703 -1534h-122zM1167 160v98l457 604h119v-610h92v-92h-92v-176h-101v176h-475zM1276 252h364v481z" />
<glyph unicode="&#xbf;" horiz-adv-x="1049" vert-adv-y="2457" d="M102 -70q0 184 155 323q54 48 143 106q68 44 86 69q28 39 28 102v112h133v-153q0 -86 -49 -137q-27 -27 -137 -99l-9 -6q-90 -59 -132 -105q-78 -86 -78 -200q0 -262 295 -262q184 0 265 124q32 49 58 134l127 -21q-88 -350 -468 -350q-189 0 -302 94q-115 96 -115 269z M492 898v250h178v-250h-178z" />
<glyph unicode="&#xc0;" horiz-adv-x="1358" vert-adv-y="2457" d="M0 0l588 1544h184l586 -1544h-156l-153 412h-756l-156 -412h-137zM340 535h661l-327 878zM428 1931h153l164 -272h-123z" />
<glyph unicode="&#xc1;" horiz-adv-x="1358" vert-adv-y="2457" d="M0 0l588 1544h184l586 -1544h-156l-153 412h-756l-156 -412h-137zM340 535h661l-327 878zM615 1659l164 272h153l-194 -272h-123z" />
<glyph unicode="&#xc2;" horiz-adv-x="1358" vert-adv-y="2457" d="M0 0l588 1544h184l586 -1544h-156l-153 412h-756l-156 -412h-137zM340 535h661l-327 878zM366 1659l238 272h143l238 -272h-133l-176 180l-177 -180h-133z" />
<glyph unicode="&#xc3;" horiz-adv-x="1358" vert-adv-y="2457" d="M0 0l588 1544h184l586 -1544h-156l-153 412h-756l-156 -412h-137zM303 1726q48 181 193 181q71 0 163 -47l68 -35q64 -33 109 -33q66 0 96 100l100 -24q-50 -183 -191 -183q-67 0 -167 50l-64 32q-66 33 -104 33q-66 0 -103 -98zM340 535h661l-327 878z" />
<glyph unicode="&#xc4;" horiz-adv-x="1358" vert-adv-y="2457" d="M0 0l588 1544h184l586 -1544h-156l-153 412h-756l-156 -412h-137zM340 535h661l-327 878zM446 1688v209h137v-209h-137zM778 1688v209h137v-209h-137z" />
<glyph unicode="&#xc5;" horiz-adv-x="1358" vert-adv-y="2457" d="M0 0l577 1516q-133 47 -133 201q0 111 70 168q60 49 169 49q129 0 190 -79q42 -54 42 -141q0 -154 -133 -198l576 -1516h-156l-153 412h-756l-156 -412h-137zM340 535h661l-327 878zM530 1716q0 -69 49 -108q37 -30 100 -30q68 0 112 40q38 36 38 101q0 64 -43 101 q-42 36 -110 36q-79 0 -120 -53q-26 -33 -26 -87z" />
<glyph unicode="&#xc6;" horiz-adv-x="2271" vert-adv-y="2457" d="M-20 0l1038 1544h1139v-129h-893v-563h847v-129h-847v-594h925v-129h-1069v412h-708l-277 -412h-155zM494 535h626v880h-35z" />
<glyph unicode="&#xc7;" horiz-adv-x="1464" vert-adv-y="2457" d="M98 758q0 388 182 607q180 216 494 216q495 0 594 -453l-143 -38q-42 153 -120 238q-117 128 -329 128q-266 0 -403 -211q-119 -182 -119 -491q0 -297 126 -473q138 -191 389 -191q246 0 375 171q76 101 103 261l148 -22q-113 -537 -631 -537q-270 0 -442 162 q-224 211 -224 633zM498 -393l194 272h123l-164 -272h-153z" />
<glyph unicode="&#xc8;" horiz-adv-x="1305" vert-adv-y="2457" d="M154 0v1544h1036v-129h-893v-563h848v-129h-848v-594h926v-129h-1069zM486 1931h153l164 -272h-123z" />
<glyph unicode="&#xc9;" horiz-adv-x="1305" vert-adv-y="2457" d="M154 0v1544h1036v-129h-893v-563h848v-129h-848v-594h926v-129h-1069zM580 1659l164 272h153l-194 -272h-123z" />
<glyph unicode="&#xca;" horiz-adv-x="1305" vert-adv-y="2457" d="M154 0v1544h1036v-129h-893v-563h848v-129h-848v-594h926v-129h-1069zM368 1659l238 272h142l238 -272h-133l-176 180l-176 -180h-133z" />
<glyph unicode="&#xcb;" horiz-adv-x="1305" vert-adv-y="2457" d="M154 0v1544h1036v-129h-893v-563h848v-129h-848v-594h926v-129h-1069zM446 1688v209h137v-209h-137zM778 1688v209h137v-209h-137z" />
<glyph unicode="&#xcc;" horiz-adv-x="451" vert-adv-y="2457" d="M-26 1931h153l164 -272h-123zM153 0v1544h143v-1544h-143z" />
<glyph unicode="&#xcd;" horiz-adv-x="451" vert-adv-y="2457" d="M154 0v1544h143v-1544h-143zM162 1659l164 272h153l-194 -272h-123z" />
<glyph unicode="&#xce;" horiz-adv-x="451" vert-adv-y="2457" d="M-90 1659l238 272h143l238 -272h-133l-176 180l-177 -180h-133zM154 0v1544h143v-1544h-143z" />
<glyph unicode="&#xcf;" horiz-adv-x="451" vert-adv-y="2457" d="M-6 1688v208h137v-208h-137zM154 0v1544h143v-1544h-143zM326 1688v208h137v-208h-137z" />
<glyph unicode="&#xd0;" horiz-adv-x="1462" vert-adv-y="2457" d="M0 723v123h154v698h464q746 0 746 -761q0 -783 -746 -783h-464v723h-154zM297 129h332q304 0 452 187q129 162 129 462q0 637 -581 637h-332v-569h348v-123h-348v-594z" />
<glyph unicode="&#xd1;" horiz-adv-x="1473" vert-adv-y="2457" d="M154 0v1544h190l832 -1360v1360h143v-1544h-189l-833 1362v-1362h-143zM389 1726q47 181 193 181q71 0 163 -47l68 -35q64 -33 109 -33q66 0 96 100l100 -24q-50 -183 -191 -183q-67 0 -167 50l-64 32q-67 33 -104 33q-67 0 -103 -98z" />
<glyph unicode="&#xd2;" horiz-adv-x="1608" vert-adv-y="2457" d="M98 772q0 383 190 598q188 211 521 211q323 0 509 -211q191 -216 191 -598q0 -381 -191 -597q-187 -212 -514 -212q-294 0 -478 173q-228 216 -228 636zM254 772q0 -297 139 -483q150 -199 409 -199q236 0 383 164q169 188 169 518q0 299 -140 482q-151 200 -415 200 q-256 0 -406 -200q-139 -184 -139 -482zM577 1931h153l164 -272h-123z" />
<glyph unicode="&#xd3;" horiz-adv-x="1608" vert-adv-y="2457" d="M98 772q0 383 190 598q188 211 521 211q323 0 509 -211q191 -216 191 -598q0 -381 -191 -597q-187 -212 -514 -212q-294 0 -478 173q-228 216 -228 636zM254 772q0 -297 139 -483q150 -199 409 -199q236 0 383 164q169 188 169 518q0 299 -140 482q-151 200 -415 200 q-256 0 -406 -200q-139 -184 -139 -482zM731 1659l164 272h153l-194 -272h-123z" />
<glyph unicode="&#xd4;" horiz-adv-x="1608" vert-adv-y="2457" d="M98 772q0 383 190 598q188 211 521 211q323 0 509 -211q191 -216 191 -598q0 -381 -191 -597q-187 -212 -514 -212q-294 0 -478 173q-228 216 -228 636zM254 772q0 -297 139 -483q150 -199 409 -199q236 0 383 164q169 188 169 518q0 299 -140 482q-151 200 -415 200 q-256 0 -406 -200q-139 -184 -139 -482zM491 1659l238 272h142l238 -272h-133l-176 180l-176 -180h-133z" />
<glyph unicode="&#xd5;" horiz-adv-x="1608" vert-adv-y="2457" d="M98 772q0 383 190 598q188 211 521 211q323 0 509 -211q191 -216 191 -598q0 -381 -191 -597q-187 -212 -514 -212q-294 0 -478 173q-228 216 -228 636zM254 772q0 -297 139 -483q150 -199 409 -199q236 0 383 164q169 188 169 518q0 299 -140 482q-151 200 -415 200 q-256 0 -406 -200q-139 -184 -139 -482zM444 1726q47 181 193 181q71 0 163 -47l68 -35q64 -33 109 -33q66 0 96 100l100 -24q-50 -183 -191 -183q-67 0 -167 50l-64 32q-67 33 -104 33q-67 0 -103 -98z" />
<glyph unicode="&#xd6;" horiz-adv-x="1608" vert-adv-y="2457" d="M98 772q0 383 190 598q188 211 521 211q323 0 509 -211q191 -216 191 -598q0 -381 -191 -597q-187 -212 -514 -212q-294 0 -478 173q-228 216 -228 636zM254 772q0 -297 139 -483q150 -199 409 -199q236 0 383 164q169 188 169 518q0 299 -140 482q-151 200 -415 200 q-256 0 -406 -200q-139 -184 -139 -482zM574 1688v209h137v-209h-137zM906 1688v209h137v-209h-137z" />
<glyph unicode="&#xd7;" vert-adv-y="2457" d="M164 342l356 389l-356 389l84 78l350 -383l350 383l84 -78l-356 -389l356 -389l-84 -78l-350 383l-350 -383z" />
<glyph unicode="&#xd8;" horiz-adv-x="1608" vert-adv-y="2457" d="M98 771q0 383 190 599q187 211 515 211q212 0 381 -98l133 209l102 -68l-137 -217q227 -223 227 -634q0 -382 -191 -598q-187 -212 -515 -212q-214 0 -377 96l-133 -206l-103 67l138 215q-230 222 -230 636zM250 772q0 -313 158 -510l702 1106q-136 92 -307 92 q-264 0 -414 -199q-139 -185 -139 -489zM498 176q129 -92 304 -92q239 0 386 164q170 189 170 525q0 315 -158 509z" />
<glyph unicode="&#xd9;" horiz-adv-x="1440" vert-adv-y="2457" d="M143 580v964h144v-952q0 -271 119 -393q105 -109 316 -109q209 0 314 109q117 122 117 393v952h143v-964q0 -617 -572 -617q-581 0 -581 617zM541 1931h153l164 -272h-123z" />
<glyph unicode="&#xda;" horiz-adv-x="1440" vert-adv-y="2457" d="M143 580v964h144v-952q0 -271 119 -393q105 -109 316 -109q209 0 314 109q117 122 117 393v952h143v-964q0 -617 -572 -617q-581 0 -581 617zM611 1659l164 272h153l-194 -272h-123z" />
<glyph unicode="&#xdb;" horiz-adv-x="1440" vert-adv-y="2457" d="M143 580v964h144v-952q0 -271 119 -393q105 -109 316 -109q209 0 314 109q117 122 117 393v952h143v-964q0 -617 -572 -617q-581 0 -581 617zM409 1659l238 272h143l238 -272h-133l-176 180l-177 -180h-133z" />
<glyph unicode="&#xdc;" horiz-adv-x="1440" vert-adv-y="2457" d="M143 580v964h144v-952q0 -271 119 -393q105 -109 316 -109q209 0 314 109q117 122 117 393v952h143v-964q0 -617 -572 -617q-581 0 -581 617zM490 1688v209h137v-209h-137zM822 1688v209h137v-209h-137z" />
<glyph unicode="&#xdd;" horiz-adv-x="1223" vert-adv-y="2457" d="M0 1544h158l458 -815l455 815h152l-541 -952v-592h-143v592zM539 1659l165 272h152l-194 -272h-123z" />
<glyph unicode="&#xde;" horiz-adv-x="1294" vert-adv-y="2457" d="M154 0v1544h143v-295h469q252 0 374 -152q93 -116 93 -307q0 -209 -136 -333q-136 -125 -372 -125h-428v-332h-143zM297 455h440q175 0 268 106q76 86 76 237q0 179 -117 264q-84 62 -221 62h-446v-669z" />
<glyph unicode="&#xdf;" horiz-adv-x="1159" vert-adv-y="2457" d="M133 0v1114q0 238 139 353q119 98 313 98q190 0 308 -104q96 -84 96 -234q0 -261 -272 -365q360 -34 360 -426q0 -201 -130 -330q-124 -124 -317 -124q-95 0 -173 16l8 119q54 -17 132 -17q163 0 254 96q87 91 87 248q0 169 -91 251q-109 98 -362 98h-20v118h22 q204 0 302 121q63 79 63 191q0 127 -93 188q-68 45 -193 45q-302 0 -302 -366v-1090h-131z" />
<glyph unicode="&#xe0;" horiz-adv-x="1020" vert-adv-y="2457" d="M74 273q0 178 115 270q84 68 247 92l346 51v88q0 234 -262 234q-142 0 -215 -71q-50 -48 -82 -142l-117 30q89 293 422 293q203 0 301 -99q84 -85 84 -237v-598q0 -75 29 -184h-129q-1 2 -3 11q-1 3 -4 11q-15 39 -15 132q-91 -114 -184 -157q-71 -34 -205 -34 q-140 0 -229 77q-99 86 -99 233zM209 279q0 -203 215 -203q128 0 222 62q136 90 136 257v178l-350 -55q-223 -35 -223 -239zM347 1544h153l164 -272h-123z" />
<glyph unicode="&#xe1;" horiz-adv-x="1020" vert-adv-y="2457" d="M74 273q0 178 115 270q84 68 247 92l346 51v88q0 234 -262 234q-142 0 -215 -71q-50 -48 -82 -142l-117 30q89 293 422 293q203 0 301 -99q84 -85 84 -237v-598q0 -75 29 -184h-129q-1 2 -3 11q-1 3 -4 11q-15 39 -15 132q-91 -114 -184 -157q-71 -34 -205 -34 q-140 0 -229 77q-99 86 -99 233zM209 279q0 -203 215 -203q128 0 222 62q136 90 136 257v178l-350 -55q-223 -35 -223 -239zM421 1272l164 272h153l-194 -272h-123z" />
<glyph unicode="&#xe2;" horiz-adv-x="1020" vert-adv-y="2457" d="M74 273q0 178 115 270q84 68 247 92l346 51v88q0 234 -262 234q-142 0 -215 -71q-50 -48 -82 -142l-117 30q89 293 422 293q203 0 301 -99q84 -85 84 -237v-598q0 -75 29 -184h-129q-1 2 -3 11q-1 3 -4 11q-15 39 -15 132q-91 -114 -184 -157q-71 -34 -205 -34 q-140 0 -229 77q-99 86 -99 233zM209 279q0 -203 215 -203q128 0 222 62q136 90 136 257v178l-350 -55q-223 -35 -223 -239zM223 1272l238 272h143l238 -272h-133l-176 180l-177 -180h-133z" />
<glyph unicode="&#xe3;" horiz-adv-x="1020" vert-adv-y="2457" d="M74 273q0 178 115 270q84 68 247 92l346 51v88q0 234 -262 234q-142 0 -215 -71q-50 -48 -82 -142l-117 30q89 293 422 293q203 0 301 -99q84 -85 84 -237v-598q0 -75 29 -184h-129q-1 2 -3 11q-1 3 -4 11q-15 39 -15 132q-91 -114 -184 -157q-71 -34 -205 -34 q-140 0 -229 77q-99 86 -99 233zM156 1339q47 181 194 181q70 0 161 -47l68 -35q64 -33 110 -33q65 0 96 100l99 -24q-22 -86 -75 -137q-48 -46 -116 -46q-67 0 -167 50l-63 32q-67 33 -104 33q-67 0 -104 -98zM209 279q0 -203 215 -203q128 0 222 62q136 90 136 257v178 l-350 -55q-223 -35 -223 -239z" />
<glyph unicode="&#xe4;" horiz-adv-x="1020" vert-adv-y="2457" d="M74 273q0 178 115 270q84 68 247 92l346 51v88q0 234 -262 234q-142 0 -215 -71q-50 -48 -82 -142l-117 30q89 293 422 293q203 0 301 -99q84 -85 84 -237v-598q0 -75 29 -184h-129q-1 2 -3 11q-1 3 -4 11q-15 39 -15 132q-91 -114 -184 -157q-71 -34 -205 -34 q-140 0 -229 77q-99 86 -99 233zM209 279q0 -203 215 -203q128 0 222 62q136 90 136 257v178l-350 -55q-223 -35 -223 -239zM293 1303v209h137v-209h-137zM625 1303v209h137v-209h-137z" />
<glyph unicode="&#xe5;" horiz-adv-x="1020" vert-adv-y="2457" d="M74 273q0 178 115 270q84 68 247 92l346 51v88q0 234 -262 234q-142 0 -215 -71q-50 -48 -82 -142l-117 30q89 293 422 293q203 0 301 -99q84 -85 84 -237v-598q0 -75 29 -184h-129q-1 2 -3 11q-1 3 -4 11q-15 39 -15 132q-91 -114 -184 -157q-71 -34 -205 -34 q-140 0 -229 77q-99 86 -99 233zM209 279q0 -203 215 -203q128 0 222 62q136 90 136 257v178l-350 -55q-223 -35 -223 -239zM305 1408q0 105 67 160q55 46 161 46q121 0 179 -75q40 -52 40 -134q0 -102 -68 -157q-56 -46 -155 -46q-101 0 -160 50q-64 54 -64 156zM391 1409 q0 -65 45 -101q34 -28 94 -28q61 0 101 37q35 33 35 95q0 70 -57 103q-36 21 -84 21q-59 0 -100 -37q-34 -31 -34 -90z" />
<glyph unicode="&#xe6;" horiz-adv-x="1804" vert-adv-y="2457" d="M74 274q0 308 362 361l348 51v70q0 252 -269 252q-137 0 -210 -71q-50 -48 -82 -142l-117 30q89 293 419 293q277 0 362 -207q120 207 380 207q227 0 353 -149q111 -132 111 -348v-21v-22v-14v-14q0 -18 -2 -32h-820q4 -181 72 -292q89 -148 272 -148q163 0 255 106 q42 48 77 150l123 -45q-108 -326 -454 -326q-297 0 -404 238q-149 -238 -434 -238q-147 0 -240 77q-102 85 -102 234zM209 281q0 -205 231 -205q136 0 233 74q111 85 111 245v178l-352 -55q-223 -35 -223 -237zM911 621h682q0 151 -63 250q-87 139 -268 139 q-186 0 -283 -157q-59 -97 -68 -232z" />
<glyph unicode="&#xe7;" horiz-adv-x="1047" vert-adv-y="2457" d="M82 541q0 259 116 411q125 166 362 166q341 0 421 -325l-131 -39q-31 120 -85 176q-73 76 -210 76q-168 0 -256 -137q-78 -120 -78 -328q0 -212 75 -327q88 -136 262 -136q172 0 250 124q37 57 58 148l127 -37q-103 -350 -431 -350q-214 0 -339 136q-141 153 -141 442z M318 -393l194 272h123l-164 -272h-153z" />
<glyph unicode="&#xe8;" horiz-adv-x="1116" vert-adv-y="2457" d="M82 537q0 255 124 412q133 169 371 169q230 0 355 -149q110 -133 110 -348v-21v-22v-14v-14q0 -18 -2 -32h-819q6 -183 72 -292q89 -148 272 -148q161 0 249 100q43 49 83 156l123 -45q-37 -114 -109 -190q-127 -136 -344 -136q-211 0 -339 134q-146 154 -146 440z M223 621h682q-1 154 -63 250q-89 139 -268 139q-187 0 -283 -157q-59 -97 -68 -232zM384 1544h153l164 -272h-123z" />
<glyph unicode="&#xe9;" horiz-adv-x="1116" vert-adv-y="2457" d="M82 537q0 255 124 412q133 169 371 169q230 0 355 -149q110 -133 110 -348v-21v-22v-14v-14q0 -18 -2 -32h-819q6 -183 72 -292q89 -148 272 -148q161 0 249 100q43 49 83 156l123 -45q-37 -114 -109 -190q-127 -136 -344 -136q-211 0 -339 134q-146 154 -146 440z M223 621h682q-1 154 -63 250q-89 139 -268 139q-187 0 -283 -157q-59 -97 -68 -232zM467 1272l164 272h153l-194 -272h-123z" />
<glyph unicode="&#xea;" horiz-adv-x="1116" vert-adv-y="2457" d="M82 537q0 255 124 412q133 169 371 169q230 0 355 -149q110 -133 110 -348v-21v-22v-14v-14q0 -18 -2 -32h-819q6 -183 72 -292q89 -148 272 -148q161 0 249 100q43 49 83 156l123 -45q-37 -114 -109 -190q-127 -136 -344 -136q-211 0 -339 134q-146 154 -146 440z M223 621h682q-1 154 -63 250q-89 139 -268 139q-187 0 -283 -157q-59 -97 -68 -232zM273 1272l238 272h143l238 -272h-133l-176 180l-177 -180h-133z" />
<glyph unicode="&#xeb;" horiz-adv-x="1116" vert-adv-y="2457" d="M82 537q0 255 124 412q133 169 371 169q230 0 355 -149q110 -133 110 -348v-21v-22v-14v-14q0 -18 -2 -32h-819q6 -183 72 -292q89 -148 272 -148q161 0 249 100q43 49 83 156l123 -45q-37 -114 -109 -190q-127 -136 -344 -136q-211 0 -339 134q-146 154 -146 440z M223 621h682q-1 154 -63 250q-89 139 -268 139q-187 0 -283 -157q-59 -97 -68 -232zM347 1303v209h137v-209h-137zM679 1303v209h137v-209h-137z" />
<glyph unicode="&#xec;" horiz-adv-x="418" vert-adv-y="2457" d="M-44 1544h153l164 -272h-123zM143 0v1081h131v-1081h-131z" />
<glyph unicode="&#xed;" horiz-adv-x="418" vert-adv-y="2457" d="M143 0v1081h131v-1081h-131zM144 1272l164 272h153l-194 -272h-123z" />
<glyph unicode="&#xee;" horiz-adv-x="418" vert-adv-y="2457" d="M-101 1272l238 272h143l238 -272h-133l-176 180l-177 -180h-133zM143 0v1081h131v-1081h-131z" />
<glyph unicode="&#xef;" horiz-adv-x="418" vert-adv-y="2457" d="M-24 1303v209h137v-209h-137zM143 0v1081h131v-1081h-131zM308 1303v209h137v-209h-137z" />
<glyph unicode="&#xf0;" horiz-adv-x="1141" vert-adv-y="2457" d="M82 483q0 235 118 375q127 150 357 150q191 0 297 -105q-70 213 -217 373l-203 -152l-55 86l186 140q-91 85 -194 147l65 84q128 -71 230 -160l186 140l57 -84l-170 -125q132 -145 200 -280q120 -239 120 -514q0 -286 -121 -437q-126 -158 -369 -158q-215 0 -343 122 q-144 137 -144 398zM221 483q0 -184 79 -288q91 -119 270 -119q160 0 251 100q97 107 97 311q0 184 -82 289q-92 119 -275 119q-171 0 -261 -121q-79 -107 -79 -291z" />
<glyph unicode="&#xf1;" horiz-adv-x="1130" vert-adv-y="2457" d="M133 0v1081h131v-188q61 105 125 153q97 72 247 72q170 0 268 -102q93 -98 93 -264v-752h-131v717q0 284 -261 284q-165 0 -261 -151q-80 -128 -80 -309v-541h-131zM205 1339q47 181 194 181q70 0 161 -47l68 -35q64 -33 110 -33q65 0 96 100l99 -24q-22 -86 -75 -137 q-48 -46 -116 -46q-67 0 -166 50l-64 32q-66 33 -104 33q-67 0 -104 -98z" />
<glyph unicode="&#xf2;" horiz-adv-x="1139" vert-adv-y="2457" d="M82 541q0 261 119 413q130 164 372 164q234 0 364 -164q120 -154 120 -413q0 -260 -120 -413q-130 -165 -366 -165q-217 0 -344 135q-145 154 -145 443zM221 536q0 -203 79 -324q91 -136 268 -136q168 0 262 125q88 116 88 345q0 203 -81 323q-92 137 -271 137 q-192 0 -282 -161q-63 -113 -63 -309zM372 1544h153l164 -272h-123z" />
<glyph unicode="&#xf3;" horiz-adv-x="1139" vert-adv-y="2457" d="M82 541q0 261 119 413q130 164 372 164q234 0 364 -164q120 -154 120 -413q0 -260 -120 -413q-130 -165 -366 -165q-217 0 -344 135q-145 154 -145 443zM221 536q0 -203 79 -324q91 -136 268 -136q168 0 262 125q88 116 88 345q0 203 -81 323q-92 137 -271 137 q-192 0 -282 -161q-63 -113 -63 -309zM466 1272l164 272h154l-195 -272h-123z" />
<glyph unicode="&#xf4;" horiz-adv-x="1139" vert-adv-y="2457" d="M82 541q0 261 119 413q130 164 372 164q234 0 364 -164q120 -154 120 -413q0 -260 -120 -413q-130 -165 -366 -165q-217 0 -344 135q-145 154 -145 443zM221 536q0 -203 79 -324q91 -136 268 -136q168 0 262 125q88 116 88 345q0 203 -81 323q-92 137 -271 137 q-192 0 -282 -161q-63 -113 -63 -309zM260 1272l238 272h143l238 -272h-133l-176 180l-177 -180h-133z" />
<glyph unicode="&#xf5;" horiz-adv-x="1139" vert-adv-y="2457" d="M82 541q0 261 119 413q130 164 372 164q234 0 364 -164q120 -154 120 -413q0 -260 -120 -413q-130 -165 -366 -165q-217 0 -344 135q-145 154 -145 443zM213 1339q47 181 195 181q70 0 161 -47l68 -35q64 -33 109 -33q65 0 96 100l100 -24q-23 -86 -76 -137 q-47 -46 -115 -46q-67 0 -167 50l-64 32q-66 33 -104 33q-66 0 -103 -98zM221 536q0 -203 79 -324q91 -136 268 -136q168 0 262 125q88 116 88 345q0 203 -81 323q-92 137 -271 137q-192 0 -282 -161q-63 -113 -63 -309z" />
<glyph unicode="&#xf6;" horiz-adv-x="1139" vert-adv-y="2457" d="M82 541q0 261 119 413q130 164 372 164q234 0 364 -164q120 -154 120 -413q0 -260 -120 -413q-130 -165 -366 -165q-217 0 -344 135q-145 154 -145 443zM221 536q0 -203 79 -324q91 -136 268 -136q168 0 262 125q88 116 88 345q0 203 -81 323q-92 137 -271 137 q-192 0 -282 -161q-63 -113 -63 -309zM346 1303v209h137v-209h-137zM678 1303v209h137v-209h-137z" />
<glyph unicode="&#xf7;" vert-adv-y="2457" d="M51 674v114h1090v-114h-1090zM514 240v217h166v-217h-166zM514 1006v217h166v-217h-166z" />
<glyph unicode="&#xf8;" horiz-adv-x="1139" vert-adv-y="2457" d="M82 539q0 262 119 415q130 164 368 164q154 0 267 -71l100 155l86 -53l-109 -168q144 -159 144 -440q0 -260 -120 -413q-130 -165 -367 -165q-151 0 -265 70l-100 -156l-86 53l106 168q-143 163 -143 441zM215 541q0 -209 80 -334l477 741q-88 62 -204 62 q-181 0 -272 -136q-81 -120 -81 -333zM369 131q80 -59 200 -59q171 0 265 123q90 118 90 351q0 197 -80 326z" />
<glyph unicode="&#xf9;" horiz-adv-x="1130" vert-adv-y="2457" d="M133 330v751h131v-716q0 -129 58 -202q67 -85 200 -85q167 0 263 153q81 128 81 308v542h131v-1081h-131v190q-60 -106 -126 -154q-98 -73 -250 -73q-130 0 -220 64q-137 97 -137 303zM371 1544h153l164 -272h-123z" />
<glyph unicode="&#xfa;" horiz-adv-x="1130" vert-adv-y="2457" d="M133 330v751h131v-716q0 -129 58 -202q67 -85 200 -85q167 0 263 153q81 128 81 308v542h131v-1081h-131v190q-60 -106 -126 -154q-98 -73 -250 -73q-130 0 -220 64q-137 97 -137 303zM466 1272l164 272h153l-194 -272h-123z" />
<glyph unicode="&#xfb;" horiz-adv-x="1130" vert-adv-y="2457" d="M133 330v751h131v-716q0 -129 58 -202q67 -85 200 -85q167 0 263 153q81 128 81 308v542h131v-1081h-131v190q-60 -106 -126 -154q-98 -73 -250 -73q-130 0 -220 64q-137 97 -137 303zM255 1272l238 272h144l238 -272h-133l-176 180l-178 -180h-133z" />
<glyph unicode="&#xfc;" horiz-adv-x="1130" vert-adv-y="2457" d="M133 330v751h131v-716q0 -129 58 -202q67 -85 200 -85q167 0 263 153q81 128 81 308v542h131v-1081h-131v190q-60 -106 -126 -154q-98 -73 -250 -73q-130 0 -220 64q-137 97 -137 303zM342 1303v209h137v-209h-137zM674 1303v209h137v-209h-137z" />
<glyph unicode="&#xfd;" horiz-adv-x="989" vert-adv-y="2457" d="M0 1081h141l377 -901l340 901h131l-489 -1296q-79 -209 -264 -209h-12q-80 0 -161 25l25 110q68 -18 119 -18q77 0 121 43q32 32 59 100l66 170zM416 1272l164 272h153l-194 -272h-123z" />
<glyph unicode="&#xfe;" horiz-adv-x="1159" vert-adv-y="2457" d="M133 -393v1937h131v-637q70 115 171 168q82 43 204 43q213 0 329 -158q109 -149 109 -403q0 -265 -112 -420q-124 -174 -355 -174q-219 0 -346 191v-547h-131zM260 530q0 -192 77 -312q90 -140 257 -140q145 0 232 90q112 116 112 370q0 466 -332 466q-173 0 -267 -149 q-79 -127 -79 -325z" />
<glyph unicode="&#xff;" horiz-adv-x="989" vert-adv-y="2457" d="M0 1081h141l377 -901l340 901h131l-489 -1296q-79 -209 -264 -209h-12q-80 0 -161 25l25 110q68 -18 119 -18q77 0 121 43q32 32 59 100l66 170zM259 1303v209h137v-209h-137zM591 1303v209h137v-209h-137z" />
<glyph unicode="&#x152;" horiz-adv-x="2501" vert-adv-y="2457" d="M98 771q0 381 190 598q187 212 513 212q362 0 549 -281v244h1036v-129h-897v-563h852v-129h-852v-594h930v-129h-1069v244q-192 -281 -547 -281q-293 0 -477 173q-228 216 -228 635zM254 772q0 -300 136 -483q148 -199 411 -199q247 0 396 186q153 190 153 500 q0 292 -139 477q-151 201 -415 201q-258 0 -406 -199q-136 -182 -136 -483z" />
<glyph unicode="&#x153;" horiz-adv-x="1942" vert-adv-y="2457" d="M82 541q0 261 119 413q130 164 367 164q294 0 415 -262q127 262 420 262q255 0 376 -179q89 -131 89 -343v-21v-22v-14v-14q0 -20 -2 -31h-819q9 -173 72 -274q90 -144 266 -144q166 0 263 109q47 54 70 126l125 -45q-117 -303 -459 -303q-281 0 -403 260 q-119 -260 -411 -260q-216 0 -343 135q-145 154 -145 443zM221 536q0 -203 79 -324q91 -136 268 -136q168 0 262 125q88 116 88 345q0 203 -81 323q-92 137 -271 137q-192 0 -282 -161q-63 -113 -63 -309zM1049 596h682q-5 414 -336 414q-185 0 -278 -155q-60 -102 -68 -259 z" />
<glyph unicode="&#x178;" horiz-adv-x="1223" vert-adv-y="2457" d="M0 1544h158l458 -815l455 815h152l-541 -952v-592h-143v592zM386 1688v209h137v-209h-137zM718 1688v209h137v-209h-137z" />
<glyph unicode="&#x2c6;" horiz-adv-x="811" vert-adv-y="2457" d="M96 1272l238 272h143l238 -272h-133l-176 180l-177 -180h-133z" />
<glyph unicode="&#x2dc;" horiz-adv-x="811" vert-adv-y="2457" d="M41 1339q47 181 195 181q70 0 161 -47l68 -35q64 -33 109 -33q65 0 96 100l100 -24q-23 -86 -76 -137q-48 -46 -115 -46t-167 50l-64 32q-66 33 -104 33q-67 0 -103 -98z" />
<glyph unicode="&#x2000;" horiz-adv-x="967" vert-adv-y="0" />
<glyph unicode="&#x2001;" horiz-adv-x="1934" vert-adv-y="0" />
<glyph unicode="&#x2002;" horiz-adv-x="967" vert-adv-y="0" />
<glyph unicode="&#x2003;" horiz-adv-x="1934" vert-adv-y="0" />
<glyph unicode="&#x2004;" horiz-adv-x="644" vert-adv-y="0" />
<glyph unicode="&#x2005;" horiz-adv-x="483" vert-adv-y="0" />
<glyph unicode="&#x2006;" horiz-adv-x="322" vert-adv-y="0" />
<glyph unicode="&#x2007;" horiz-adv-x="322" vert-adv-y="0" />
<glyph unicode="&#x2008;" horiz-adv-x="241" vert-adv-y="0" />
<glyph unicode="&#x2009;" horiz-adv-x="386" vert-adv-y="0" />
<glyph unicode="&#x200a;" horiz-adv-x="107" vert-adv-y="0" />
<glyph unicode="&#x2010;" horiz-adv-x="782" vert-adv-y="2457" d="M123 469v143h536v-143h-536z" />
<glyph unicode="&#x2011;" horiz-adv-x="782" vert-adv-y="2457" d="M123 469v143h536v-143h-536z" />
<glyph unicode="&#x2012;" horiz-adv-x="782" vert-adv-y="2457" d="M123 469v143h536v-143h-536z" />
<glyph unicode="&#x2013;" horiz-adv-x="1024" vert-adv-y="2457" d="M0 518v129h1024v-129h-1024z" />
<glyph unicode="&#x2014;" horiz-adv-x="2048" vert-adv-y="2457" d="M0 518v129h2048v-129h-2048z" />
<glyph unicode="&#x2018;" horiz-adv-x="465" vert-adv-y="2457" d="M143 971v227q0 133 54 224q38 65 114 141l62 -64q-66 -68 -94 -117q-35 -60 -35 -137v-24h78v-250h-179z" />
<glyph unicode="&#x2019;" horiz-adv-x="465" vert-adv-y="2457" d="M92 1016q129 132 129 254v24h-78v250h179v-227q0 -129 -52 -218q-42 -74 -116 -147z" />
<glyph unicode="&#x201a;" horiz-adv-x="465" vert-adv-y="2457" d="M92 -279q129 128 129 254v25h-78v250h179v-227q0 -126 -50 -213q-44 -77 -118 -152z" />
<glyph unicode="&#x201c;" horiz-adv-x="829" vert-adv-y="2457" d="M143 971v227q0 133 54 224q38 65 114 141l62 -64q-66 -68 -94 -117q-35 -60 -35 -137v-24h78v-250h-179zM508 971v227q0 131 51 220q41 70 117 145l61 -64q-70 -75 -94 -117q-35 -62 -35 -137v-24h78v-250h-178z" />
<glyph unicode="&#x201d;" horiz-adv-x="829" vert-adv-y="2457" d="M92 1016q129 132 129 254v24h-78v250h179v-227q0 -129 -52 -218q-42 -74 -116 -147zM457 1016q129 134 129 254v24h-78v250h178v-227q0 -133 -53 -222q-40 -68 -115 -143z" />
<glyph unicode="&#x201e;" horiz-adv-x="829" vert-adv-y="2457" d="M92 -279q129 128 129 254v25h-78v250h179v-227q0 -126 -50 -213q-44 -77 -118 -152zM457 -279q129 135 129 254v25h-78v250h178v-227q0 -129 -52 -218q-42 -72 -116 -147z" />
<glyph unicode="&#x2022;" horiz-adv-x="840" vert-adv-y="2457" d="M102 812q0 150 118 247q85 70 207 70q88 0 169 -54q141 -93 141 -267q0 -150 -118 -245q-85 -69 -199 -69q-117 0 -207 76q-111 94 -111 242z" />
<glyph unicode="&#x2026;" horiz-adv-x="2048" vert-adv-y="2457" d="M252 0v250h178v-250h-178zM934 0v250h178v-250h-178zM1618 0v250h178v-250h-178z" />
<glyph unicode="&#x202f;" horiz-adv-x="386" vert-adv-y="0" />
<glyph unicode="&#x2039;" horiz-adv-x="463" vert-adv-y="2457" d="M37 535l244 360h145l-244 -360l244 -361h-145z" />
<glyph unicode="&#x203a;" horiz-adv-x="463" vert-adv-y="2457" d="M37 174l244 361l-244 360h145l244 -360l-244 -361h-145z" />
<glyph unicode="&#x205f;" horiz-adv-x="483" vert-adv-y="0" />
<glyph unicode="&#x20ac;" horiz-adv-x="1248" vert-adv-y="2457" d="M45 557l45 109h76q-2 24 -2 44v24v24q0 62 4 114h-123l45 109h88q45 279 186 431q156 169 406 169q255 0 401 -163l-60 -146q-83 104 -143 139q-83 47 -195 47q-358 0 -443 -477h660l-46 -109h-626q-5 -77 -5 -128q0 -45 3 -78h543l-45 -109h-486q32 -205 128 -324 q117 -147 309 -147q122 0 226 65q40 25 119 88v-157q-84 -66 -151 -89q-90 -30 -200 -30q-231 0 -380 146q-155 151 -201 448h-133z" />
<glyph unicode="&#x2122;" horiz-adv-x="1890" vert-adv-y="2457" d="M45 1442v102h729v-102h-307v-746h-115v746h-307zM899 696v848h166l260 -715l281 715h155v-848h-114v676l-263 -676h-124l-246 676v-676h-115z" />
<glyph unicode="&#xe000;" horiz-adv-x="1080" vert-adv-y="2160" d="M0 0v1080h1080v-1080h-1080z" />
<glyph unicode="&#xfb01;" horiz-adv-x="1010" vert-adv-y="2457" d="M37 973v108h168v187q0 151 74 229q66 68 184 68q65 0 104 -6q9 -2 43 -6l6 -1l-12 -112q-66 8 -104 8q-87 0 -125 -48q-39 -48 -39 -151v-168h256v-108h-256v-973h-131v973h-168zM735 0v1081h131v-1081h-131zM735 1335v209h131v-209h-131z" />
<glyph unicode="&#xfb02;" horiz-adv-x="1010" vert-adv-y="2457" d="M37 973v108h168v187q0 151 74 229q66 68 184 68q65 0 104 -6q9 -2 43 -6l6 -1l-12 -112q-66 8 -104 8q-87 0 -125 -48q-39 -48 -39 -151v-168h256v-108h-256v-973h-131v973h-168zM735 0v1544h131v-1544h-131z" />
</font>
</defs>
</svg>
